<?xml version="1.0" encoding="utf-8"?>
<!-- Generator: Adobe Illustrator 20.0.0, SVG Export Plug-In . SVG Version: 6.00 Build 0)  -->
<svg version="1.1" id="Calque_1" xmlns="http://www.w3.org/2000/svg" xmlns:xlink="http://www.w3.org/1999/xlink" x="0px" y="0px"
	 viewBox="0 0 300.2 242.4" style="enable-background:new 0 0 300.2 242.4;" xml:space="preserve">
<style type="text/css">
	.st0{fill:#029FA2;}
	.st1{font-family:'PlayfairDisplay-Black';}
	.st2{font-size:72.3147px;}
	.st3{fill:#DE7046;}
	.st4{fill:#CC6144;}
	.st5{fill:#DE7046;stroke:#FFFFFF;stroke-width:1.5764;stroke-linecap:round;stroke-linejoin:round;stroke-miterlimit:10;}
	.st6{fill:none;stroke:#FFFFFF;stroke-width:1.5764;stroke-linecap:round;stroke-linejoin:round;stroke-miterlimit:10;}
	.st7{fill:#DE7046;stroke:#FFFFFF;stroke-width:1.1946;stroke-linecap:round;stroke-linejoin:round;stroke-miterlimit:10;}
	.st8{fill:none;stroke:#FFFFFF;stroke-width:1.1946;stroke-linecap:round;stroke-linejoin:round;stroke-miterlimit:10;}
	.st9{font-size:30px;}
	.st10{fill:#FFFFFF;}
	.st11{font-family:'Montserrat-Bold';}
	.st12{font-size:9px;}
	.st13{letter-spacing:1;}
</style>
<g>
	<text transform="matrix(1 0 0 1 83.7844 139.4051)" class="st0 st1 st2">F&amp;F</text>
	<g>
		
			<ellipse transform="matrix(0.7071 -0.7071 0.7071 0.7071 -67.7499 64.8828)" class="st3" cx="44.4" cy="114.2" rx="30.3" ry="30.3"/>
		<path class="st4" d="M23,135.6c-11.8-11.8-11.8-31,0-42.8s31-11.8,42.8,0"/>
		<g>
			<path class="st5" d="M56,115.6c-1.5-1.5-3.8-1.5-5.3,0c-0.7,0.7-1.1,1.7-1.1,2.7h0v1.1h-1.1l0,0c-1,0-1.9,0.4-2.7,1.1
				c-1.5,1.5-1.5,3.8,0,5.3c0.7,0.7,1.7,1.1,2.7,1.1l0,0l8.6,0v-8.6l0,0C57.1,117.3,56.7,116.3,56,115.6z"/>
			<path class="st5" d="M51.2,110.8c-1.5-1.5-3.8-1.5-5.3,0c-0.7,0.7-1.1,1.7-1.1,2.7h0v1.1h-1.1l0,0c-1,0-1.9,0.4-2.7,1.1
				c-1.5,1.5-1.5,3.8,0,5.3c0.7,0.7,1.7,1.1,2.7,1.1l0,0l8.6,0v-8.6l0,0C52.3,112.5,52,111.6,51.2,110.8z"/>
			<path class="st5" d="M46.5,106.1c-1.5-1.5-3.8-1.5-5.3,0c-0.7,0.7-1.1,1.7-1.1,2.7h0v1.1H39l0,0c-1,0-1.9,0.4-2.7,1.1
				c-1.5,1.5-1.5,3.8,0,5.3c0.7,0.7,1.7,1.1,2.7,1.1l0,0l8.6,0v-8.6l0,0C47.6,107.8,47.2,106.8,46.5,106.1z"/>
			<line class="st6" x1="40.1" y1="109.9" x2="60.8" y2="130.5"/>
			<line class="st6" x1="28.2" y1="97.9" x2="37.1" y2="106.9"/>
			<line class="st6" x1="32.2" y1="96.3" x2="38.7" y2="102.9"/>
			<line class="st6" x1="26.6" y1="101.9" x2="33.1" y2="108.4"/>
		</g>
	</g>
</g>
<g>
	<g>
		
			<ellipse transform="matrix(0.7071 -0.7071 0.7071 0.7071 -16.3253 39.2092)" class="st3" cx="39.2" cy="39.3" rx="22.9" ry="22.9"/>
		<path class="st4" d="M22.9,55.5c-9-9-9-23.5,0-32.5s23.5-9,32.5,0"/>
		<g>
			<path class="st7" d="M47.9,40.3c-1.1-1.1-2.9-1.1-4,0c-0.6,0.6-0.8,1.3-0.8,2h0v0.8h-0.8l0,0c-0.7,0-1.5,0.3-2,0.8
				c-1.1,1.1-1.1,2.9,0,4c0.6,0.6,1.3,0.8,2,0.8l0,0l6.5,0v-6.5l0,0C48.7,41.6,48.4,40.9,47.9,40.3z"/>
			<path class="st7" d="M44.3,36.7c-1.1-1.1-2.9-1.1-4,0c-0.6,0.6-0.8,1.3-0.8,2h0v0.8h-0.8l0,0c-0.7,0-1.5,0.3-2,0.8
				c-1.1,1.1-1.1,2.9,0,4c0.6,0.6,1.3,0.8,2,0.8l0,0l6.5,0v-6.5l0,0C45.1,38,44.9,37.3,44.3,36.7z"/>
			<path class="st7" d="M40.7,33.1c-1.1-1.1-2.9-1.1-4,0c-0.6,0.6-0.8,1.3-0.8,2h0V36H35l0,0c-0.7,0-1.5,0.3-2,0.8
				c-1.1,1.1-1.1,2.9,0,4c0.6,0.6,1.3,0.8,2,0.8l0,0l6.5,0v-6.5l0,0C41.5,34.4,41.3,33.7,40.7,33.1z"/>
			<line class="st8" x1="35.9" y1="36" x2="51.6" y2="51.6"/>
			<line class="st8" x1="26.9" y1="26.9" x2="33.6" y2="33.7"/>
			<line class="st8" x1="29.9" y1="25.8" x2="34.8" y2="30.7"/>
			<line class="st8" x1="25.7" y1="30" x2="30.6" y2="34.9"/>
		</g>
	</g>
	<g>
		<text transform="matrix(1 0 0 1 65.2004 44.7216)" class="st0 st1 st9">FRESH&amp;FREE</text>
		<text transform="matrix(1 0 0 1 66.3694 56.8657)" class="st10 st11 st12 st13">ATELIER DE CUISINE SANS GLUTEN</text>
	</g>
</g>
<g>
	
		<ellipse transform="matrix(0.7071 -0.7071 0.7071 0.7071 -128.8392 89.6194)" class="st3" cx="43.8" cy="200.3" rx="30.3" ry="30.3"/>
	<path class="st4" d="M22.3,221.7c-11.8-11.8-11.8-31,0-42.8s31-11.8,42.8,0"/>
	<g>
		<path class="st5" d="M55.3,201.7c-1.5-1.5-3.8-1.5-5.3,0c-0.7,0.7-1.1,1.7-1.1,2.7h0v1.1h-1.1l0,0c-1,0-1.9,0.4-2.7,1.1
			c-1.5,1.5-1.5,3.8,0,5.3c0.7,0.7,1.7,1.1,2.7,1.1l0,0l8.6,0v-8.6l0,0C56.4,203.4,56,202.4,55.3,201.7z"/>
		<path class="st5" d="M50.5,196.9c-1.5-1.5-3.8-1.5-5.3,0c-0.7,0.7-1.1,1.7-1.1,2.7h0v1.1H43l0,0c-1,0-1.9,0.4-2.7,1.1
			c-1.5,1.5-1.5,3.8,0,5.3c0.7,0.7,1.7,1.1,2.7,1.1l0,0l8.6,0v-8.6l0,0C51.6,198.6,51.3,197.7,50.5,196.9z"/>
		<path class="st5" d="M45.8,192.2c-1.5-1.5-3.8-1.5-5.3,0c-0.7,0.7-1.1,1.7-1.1,2.7h0v1.1h-1.1l0,0c-1,0-1.9,0.4-2.7,1.1
			c-1.5,1.5-1.5,3.8,0,5.3c0.7,0.7,1.7,1.1,2.7,1.1l0,0l8.6,0v-8.6l0,0C46.9,193.9,46.5,192.9,45.8,192.2z"/>
		<line class="st6" x1="39.4" y1="196" x2="60.1" y2="216.6"/>
		<line class="st6" x1="27.5" y1="184" x2="36.4" y2="193"/>
		<line class="st6" x1="31.5" y1="182.4" x2="38" y2="189"/>
		<line class="st6" x1="26" y1="188" x2="32.4" y2="194.5"/>
	</g>
</g>
</svg>
