<?xml version="1.0" encoding="utf-8"?>
<!-- Generator: Adobe Illustrator 20.0.0, SVG Export Plug-In . SVG Version: 6.00 Build 0)  -->
<svg version="1.1" id="Calque_1" xmlns="http://www.w3.org/2000/svg" xmlns:xlink="http://www.w3.org/1999/xlink" x="0px" y="0px"
	 viewBox="0 0 1134.7 463.1" style="enable-background:new 0 0 1134.7 463.1;" xml:space="preserve">
<style type="text/css">
	.st0{fill:#383432;stroke:#FFFFFF;stroke-miterlimit:10;}
	.st1{fill:#FFFFFF;}
	.st2{fill:#2F2F30;}
	.st3{fill:none;stroke:#FFFFFF;stroke-width:5;stroke-miterlimit:10;}
	.st4{fill:#2F2F30;stroke:#029FA2;stroke-miterlimit:10;}
	.st5{fill:#2F2F30;stroke:#029FA2;stroke-linecap:round;stroke-linejoin:round;}
	.st6{fill:#FFFFFF;stroke:#029FA2;stroke-linecap:round;stroke-linejoin:round;}
	.st7{fill:none;stroke:#DE7046;stroke-width:5;stroke-linecap:round;stroke-linejoin:round;}
	.st8{fill:none;stroke:#FFFFFF;stroke-width:1.11;stroke-linecap:round;stroke-linejoin:round;}
	.st9{fill:#DE7046;}
	.st10{fill:none;stroke:#FFFFFF;stroke-width:1.28;stroke-linecap:round;stroke-linejoin:round;}
	.st11{fill:none;stroke:#FFFFFF;stroke-width:1.25;stroke-linecap:round;stroke-linejoin:round;}
	.st12{fill:none;stroke:#FFFFFF;stroke-width:1.31;stroke-linecap:round;stroke-linejoin:round;}
	.st13{fill:none;stroke:#FFFFFF;stroke-width:5;stroke-linecap:round;stroke-linejoin:round;}
	.st14{fill:none;stroke:#FFFFFF;stroke-width:3.15;stroke-linecap:round;stroke-linejoin:round;}
	.st15{fill:#FFFFFF;stroke:#FFFFFF;stroke-width:1.34;stroke-miterlimit:10;}
	.st16{fill:#FFFFFF;stroke:#FFFFFF;stroke-width:2.67;stroke-miterlimit:10;}
	.st17{fill:#777472;stroke:#FFFFFF;stroke-width:1.34;stroke-linecap:round;stroke-linejoin:round;}
	.st18{fill:none;stroke:#FFFFFF;stroke-width:2;stroke-linecap:round;stroke-linejoin:round;}
</style>
<title>sprite</title>
<circle class="st0" cx="37.8" cy="172.6" r="33.4"/>
<path class="st1" d="M47.6,153.1h-5.1c-5.7,0-9.4,3.8-9.4,9.6v4.4h-5.1c-0.4,0-0.8,0.4-0.8,0.8l0,0v6.4c0,0.4,0.4,0.8,0.8,0.8h5.1
	v16.2c0,0.4,0.4,0.8,0.8,0.8h6.6c0.4,0,0.8-0.4,0.8-0.8v-16.2h6c0.4,0,0.8-0.4,0.8-0.8v-6.4c0-0.2-0.1-0.4-0.2-0.6
	c-0.1-0.1-0.4-0.2-0.6-0.2h-6v-3.8c0-1.8,0.4-2.7,2.8-2.7h3.4c0.4,0,0.8-0.4,0.8-0.8l0,0v-6C48.4,153.4,48,153.1,47.6,153.1
	L47.6,153.1z"/>
<circle class="st0" cx="118.2" cy="172.6" r="33.4"/>
<g id="Icons">
	<g id="Black">
		<g id="Line-1">
			<path id="Twitter" class="st1" d="M138.4,161.5c-1.4,0.6-2.9,1.1-4.5,1.3c1.6-1,2.9-2.6,3.4-4.4c-1.5,0.9-3.2,1.6-5,1.9
				c-1.5-1.6-3.5-2.5-5.7-2.5c-4.4,0.1-7.8,3.6-7.8,8c0,0.6,0.1,1.2,0.2,1.8c-6.3-0.3-12.2-3.4-16.1-8.4c-0.7,1.2-1.1,2.6-1.1,4
				c0,2.7,1.3,5.1,3.5,6.6c-1.2,0-2.5-0.4-3.5-1v0.1c0,3.8,2.6,7.1,6.3,7.9c-0.7,0.2-1.4,0.3-2.1,0.3c-0.5,0-1,0-1.5-0.1
				c1,3.2,3.9,5.5,7.3,5.6c-2.7,2.2-6.2,3.4-9.7,3.4c-0.6,0-1.2,0-1.9-0.1c3.6,2.3,7.7,3.6,12,3.6c14.3,0,22.2-12.2,22.2-22.8
				c0-0.3,0-0.7,0-1C136.1,164.6,137.5,163.2,138.4,161.5"/>
		</g>
	</g>
</g>
<circle class="st0" cx="199.3" cy="172.6" r="33.4"/>
<g id="Icons-2">
	<g id="Black-2">
		<g id="Line-1-2">
			<path id="Instagram" class="st1" d="M212.8,187.4h-25.5c-0.6,0-1.1-0.5-1.1-1.1v-15.9h4.3c-0.5,1-0.8,2.1-0.7,3.2
				c0,5.7,4.6,10.3,10.3,10.3s10.3-4.6,10.3-10.3c0.1-1.1-0.2-2.3-0.8-3.2h4.3v15.9C213.8,186.9,213.4,187.4,212.8,187.4
				 M200.1,167.1c3.6,0,6.5,2.9,6.5,6.5c0,3.6-2.9,6.5-6.5,6.5c-3.6,0-6.5-2.9-6.5-6.5C193.5,170,196.5,167.1,200.1,167.1
				C200.1,167.1,200.1,167.1,200.1,167.1 M208.5,160.9h3.2c0.6,0,1.1,0.5,1.1,1.1v3.2c0,0.6-0.5,1.1-1.1,1.1h-3.2
				c-0.6,0-1.1-0.5-1.1-1.1v-3.2C207.4,161.3,207.9,160.9,208.5,160.9C208.5,160.9,208.5,160.9,208.5,160.9 M213,156.6h-25.9
				c-2.2,0-4,1.8-4,4v26c0,2.2,1.8,4,4,4H213c2.2,0,4-1.8,4-4v-25.9C217,158.4,215.2,156.6,213,156.6"/>
		</g>
	</g>
</g>
<circle class="st0" cx="280.4" cy="172.6" r="33.4"/>
<g id="Icons-3">
	<g id="Black-3">
		<g id="Line-2">
			<path id="LinkedIn" class="st1" d="M300.2,187.4h-8v-11.5c0-3-1.2-5.1-4-5.1c-1.7,0-3.2,1.1-3.8,2.7c-0.2,0.6-0.2,1.2-0.2,1.8v12
				h-7.9c0,0,0.1-20.4,0-22.2h7.9v3.5c0.5-1.5,3-3.7,7-3.7c5,0,8.9,3.2,8.9,10.1L300.2,187.4L300.2,187.4z M268.5,162.4L268.5,162.4
				c-2.2,0.2-4.1-1.4-4.2-3.6c0-0.1,0-0.2,0-0.3c0-2.2,1.7-3.9,4.3-3.9c2.1-0.2,4,1.4,4.2,3.5c0,0.1,0,0.2,0,0.3
				C272.8,160.7,271.1,162.4,268.5,162.4z M265.1,165.2h7v22.2h-7C265.1,187.4,265.1,165.2,265.1,165.2z"/>
		</g>
	</g>
</g>
<path class="st2" d="M44.2,258.1l-3.3,2.4c-1,0.8-2.2,1.7-3.5,2.9c-1.4,1.3-2.7,2.7-3.8,4.3c-1.2,1.8-2,3.8-2.2,5.9
	c-0.3,2.3,0,4.6,0.8,6.8c0.9,2.5,2,4.8,3.5,7c0.7,1.2,1.5,2.3,2.4,3.4l2.6,3.6c1.8,2.5,3.4,5.1,4.7,7.9c0.7,1.4,1.2,2.9,1.5,4.5
	c0.4,1.5,0.5,3.1,0.5,4.6c0,2.9-0.7,5.8-1.9,8.5c-1,2.3-2.4,4.4-4,6.4c-1.3,1.6-2.8,3-4.4,4.4c-1.4,1.2-2.7,2.1-3.7,2.9
	s-1.9,1.3-2.5,1.7l-0.9,0.6l2.7-3c2.4-2.6,4.5-5.3,6.4-8.2c1.2-1.9,2.1-3.9,2.8-6c0.8-2.3,1.1-4.6,1-7c-0.2-2.5-0.9-5-2-7.2
	c-1.3-2.5-2.7-4.8-4.3-7.1l-2.5-3.6c-0.9-1.2-1.7-2.5-2.5-3.8c-1.6-2.6-2.8-5.4-3.6-8.3c-0.8-2.9-0.9-5.9-0.2-8.8
	c0.3-1.3,0.8-2.6,1.5-3.8c0.6-1.1,1.4-2.1,2.2-3.1c1.4-1.6,3.1-2.9,4.9-4c1.3-0.8,2.7-1.6,4.2-2.2c1.2-0.5,2.1-0.9,2.8-1.2
	L44.2,258.1z"/>
<path class="st2" d="M13.2,234.1l1,0.4c0.6,0.3,1.6,0.6,2.8,1.2c1.4,0.6,2.8,1.4,4.2,2.2c1.8,1.1,3.4,2.4,4.9,4
	c0.8,0.9,1.6,2,2.2,3.1c0.7,1.2,1.2,2.5,1.5,3.8c0.7,2.9,0.6,5.9-0.2,8.8c-0.8,2.9-2,5.7-3.6,8.3c-0.8,1.3-1.6,2.6-2.5,3.8l-2.5,3.6
	c-1.6,2.2-3.1,4.6-4.4,7.1c-1.1,2.3-1.8,4.7-2,7.2c-0.1,2.4,0.2,4.7,1,7c0.7,2.1,1.7,4.1,2.8,6c1.9,2.9,4.1,5.7,6.4,8.2l2.7,3
	l-0.9-0.6c-0.6-0.4-1.4-0.9-2.5-1.7c-1-0.8-2.3-1.7-3.7-2.9c-1.6-1.3-3.1-2.8-4.4-4.4c-1.6-1.9-3-4.1-4-6.4
	c-1.2-2.7-1.9-5.6-1.9-8.5c0-1.6,0.2-3.1,0.5-4.6c0.3-1.5,0.8-3,1.5-4.5c1.3-2.8,2.9-5.4,4.7-7.9l2.5-3.5c0.8-1.2,1.6-2.3,2.4-3.4
	c1.4-2.2,2.6-4.5,3.5-7c0.8-2.2,1-4.5,0.8-6.8c-0.3-2.1-1.1-4.1-2.3-5.9c-1.1-1.6-2.4-3-3.8-4.3c-1.3-1.2-2.5-2.1-3.5-2.9
	L13.2,234.1z"/>
<path class="st2" d="M48.5,235.2l1,0.4c0.6,0.3,1.6,0.6,2.8,1.2c1.4,0.6,2.8,1.4,4.2,2.2c1.8,1.1,3.4,2.4,4.9,4
	c0.8,0.9,1.6,2,2.2,3.1c0.7,1.2,1.2,2.5,1.5,3.8c0.7,2.9,0.6,5.9-0.2,8.8c-0.8,2.9-2,5.7-3.6,8.3c-0.8,1.3-1.6,2.6-2.5,3.8l-2.5,3.6
	c-1.6,2.2-3.1,4.6-4.3,7.1c-1.1,2.3-1.8,4.7-2,7.2c-0.1,2.4,0.2,4.7,1,7c0.7,2.1,1.7,4.1,2.8,6c1.9,2.9,4.1,5.7,6.4,8.2l2.7,3
	l-0.9-0.6c-0.6-0.4-1.4-0.9-2.5-1.7c-1-0.8-2.3-1.7-3.7-2.9c-1.6-1.3-3.1-2.8-4.4-4.4c-1.6-1.9-3-4.1-4-6.4
	c-1.2-2.7-1.9-5.6-1.9-8.5c0-1.6,0.2-3.1,0.5-4.6c0.3-1.5,0.8-3,1.5-4.5c1.3-2.8,2.9-5.4,4.7-7.9l2.5-3.6c0.8-1.2,1.6-2.3,2.4-3.4
	c1.4-2.2,2.6-4.5,3.5-7c0.8-2.2,1-4.5,0.8-6.8c-0.3-2.1-1.1-4.1-2.3-5.9c-1.1-1.6-2.4-3-3.8-4.3c-1.3-1.2-2.5-2.1-3.5-2.9
	L48.5,235.2z"/>
<path class="st3" d="M14,424c8.3-2.9,15.3-5.6,22.5-7.7c3.1-0.9,6.4,1.3,9.8,0.7c2.5-0.4,4.7-0.8,4.3-4.6c-4,2.2-7.9,3.9-11.6,0.1
	c-0.8-0.8-1.4-0.1-2.2,0.2c-7.3,2.7-14.7,5.4-22.1,7.9c-2.8,0.9-4.3,2.2-3.9,5.3c0.7,5.3-0.2,10.4,2.1,15.9
	c1.8,4.8,1.7,10.1-0.2,14.9c-1.3,3-3.4,5.3-7,3.5s-4.2-4.7-2-7.9c1.9-2.7,3.6-5.2,1.4-8.5c-0.3-0.6-0.2-1.3,0.1-1.9
	c4.3-5.3,1.8-11.5,2.5-17.3c0.1-1,0.1-2-0.2-3C5,414.1,5,414,11.7,410c9-5.2,18-10.3,26.8-15.6c2.9-2,6.8-2.1,9.8-0.3
	c10,5.2,20.2,10.1,30.3,15.2c5.5,2.8,5.7,7,0.4,10.1c-10,6-20.2,11.7-30.2,17.6c-2.5,1.7-5.8,1.8-8.4,0.2
	C32.1,432.9,23.7,428.8,14,424z"/>
<path class="st3" d="M67,437.9c1.2,4.4-1.8,7.4-5.6,9.9c-12.7,8.2-27.9,6.3-39.3-4.3c-3.1-2.9-1.5-7.3-1.1-10.9
	c0.2-1.8,2.1-0.8,3.3-0.2c5.4,2.6,10.7,5.3,16,8c3.1,1.6,5.8,1.7,8.8-0.3c4.3-2.8,8.8-5.3,13.3-7.8s4.6-2.6,4.6,2.8
	C67,435.9,67,436.5,67,437.9z"/>
<path class="st1" d="M110.1,423.6c2.2-2.1,3-4.7,3.9-7.4c3.2-9.5,6.6-18.9,13.2-26.6c6.9-8.2,17-8.5,24.4-1.1
	c7.8,7.9,7.6,17.6-0.7,24.7c-8,6.8-17.7,10.5-27.6,13.5c-2.8,1-5.3,2.6-7.2,4.9c-11.1,11.5-8.2,8.4-19.5,19.7
	c-2.5,2.5-5.2,3-7.8,0.2s-1.5-5.4,0.9-7.8C95.7,437.9,104.4,429.1,110.1,423.6z M119.6,420.8c9.9-5.9,19.3-12.3,26.8-21
	c2-2.2,5-5.6,2.2-8.2c-2.6-2.4-5.9,0.5-8.3,2.5C131.7,401.6,125.8,411.2,119.6,420.8L119.6,420.8z M152.8,397.3
	c-6.1,11.1-16.4,16.2-25.9,24.2c7.1-2.3,13.8-5.7,20-9.9C151.4,408.5,154.5,404.7,152.8,397.3z M120.3,411.5
	c6.8-8.3,12.3-17.8,22.4-23.9c-6.8-1.2-10.3,0.3-13.9,5.8S121.7,404.7,120.3,411.5L120.3,411.5z"/>
<path class="st4" d="M164.7,313.6c-0.3,2.5-1.1,4.5-3.6,5.5c-2.9,1.2-5.2,0.3-7.2-1.8l-23.6-24.5c-1.4-1.4-2.7-2.9-4.1-4.4
	c-0.8-0.9-1.6-1.7-3-0.8c-3.8,2.6-5.9,0-8.2-2.7c-8.6-10.2-16.3-21-22.3-33c-0.8-1.6-1.4-3.3-2-5.1c-0.6-1.3-0.1-2.8,1.1-3.5
	c1.1-0.8,2.6-0.7,3.8,0.1c0.7,0.4,1.4,0.9,2,1.5c10.6,9.8,22.6,18.6,31.5,29.8c10,12.5,22.3,22.5,33.2,33.9
	C163.6,310.1,164.4,311.8,164.7,313.6z"/>
<path class="st4" d="M163.7,243.1c-4.7,4.6-9.3,9.2-14,13.8c-0.4,0.4-1.5,0.6-1.5,1c0,0.9-1.6,1.6-0.5,2.6c1.2,1,1.7-0.4,2.2-0.9
	c4.1-4,8-8,12.1-11.9c1.1-1,1.7-3,4.5-2.2c-4.6,6.8-12,11.1-16.1,17.9l1.4,1.3c4.3-4.3,8.4-8.6,12.8-12.7c1.3-1.2,2.6-4.9,4.6-2.9
	c1.6,1.6-1.9,3-3.1,4.4c-3.5,4-7.2,7.8-10.9,11.6c-0.6,0.6-1.8,1.3-0.5,2.3c1,0.7,1.4-0.3,2-0.8c4.4-4.3,8.7-8.7,13.1-13
	c0.8-0.8,1.7-2.8,3.1-1.1c1,1.2-0.8,1.9-1.5,2.7c-4.3,4.4-8.7,8.7-13,13.1c-0.6,0.6-2,1.4-1.1,2.4c1,1.2,2.1,0.2,2.9-0.6
	c4.5-4.5,9-8.9,13.5-13.3c0.6-0.6,1.3-2.5,2.6-0.9c1,1.2-0.4,1.7-1,2.3c-6.4,7-12.9,13.9-19.4,20.9c-2.1,2.4-5.3,3.7-8.5,3.4
	c-2.1-0.2-3.9-0.9-6.2,1c-2.3,1.9-3.4-1.9-5.2-3c-1.4-0.9-2.6-2.4-0.7-4c1.4-1.1,1.4-2.1,0.9-3.8c-1.1-3.5,0-7.2,2.7-9.6
	c7.4-7,14.9-13.8,22.3-20.7c0.3-0.3,0.9-0.2,1.4-0.3L163.7,243.1z"/>
<path class="st4" d="M103.5,320.6c-2.3-0.1-4.3-1.1-5.2-3.3c-0.9-2.2-0.9-4.3,0.9-6c6.5-6.4,13-12.8,19.8-19
	c3.2-2.9,8.1-1.3,10.1,2.7c0.8,1.6-0.5,2.1-1.1,2.8c-6.5,6.9-13.1,13.6-19.6,20.5C107,319.6,105.3,320.4,103.5,320.6z"/>
<polygon class="st5" points="229,320.9 212.6,313.3 212.6,271.2 220.8,255.9 229,285.3 "/>
<polygon class="st6" points="274.8,254.4 221.2,255.9 229,285.3 229,320.9 283.9,313.3 283.9,282.9 "/>
<polygon class="st5" points="274.8,254.4 220.8,255.9 220.8,245.1 274.8,244.1 "/>
<polyline class="st7" points="266.3,284.6 254.1,296.7 249,291.6 "/>
<path class="st4" d="M399.6,315.9c-21.3-0.4-39.4-5.2-55.5-16.4c-6.3-4.2-11.6-9.7-15.7-16c-0.3-0.5-0.7-0.9-1.1-1.3
	c-3.6-3.6-7.2-7.1-10.7-10.8c-1.2-1-1.4-2.8-0.4-4c0.4-0.5,1-0.9,1.7-1c1.1-0.2,2.2,0.1,2.9,1c2.4,2.4,4.9,4.7,7.1,7.2
	c1.6,1.7,3.7,2.8,6,3.1c19.2,3.5,38.4,7,57.6,10.6l44.5,8.1c0.2,0,0.3,0.1,0.5,0.1c2,0.6,4.1,0.4,5.9-0.6c3.1-1.6,6.4-2.9,9.7-4.4
	c1.8-0.8,3.5-0.2,4.1,1.4c0.7,1.6,0,3.1-1.8,3.9c-2.2,1-4.3,1.9-6.5,2.9c-4.3,1.8-8.5,4-12.5,6.5c-7.1,4.6-15.1,7.1-23.4,8.3
	C407.2,315.3,402.5,315.6,399.6,315.9z"/>
<path class="st4" d="M420.9,260.6l1.1,1.2c0.4,0.4,1,0.8,1,1.2c0,1-0.3,1.9-0.8,2.7c-1.1,1.2-1.5,2.9-0.9,4.5
	c0.9,2.6,0.5,5.5-1.2,7.7c-2.1,3.2-4.2,6.3-6.3,9.5c-0.4,0.5-0.8,1-1.3,1.4c-0.6,0.6-1.6,0.8-2.3,0.3c-0.8-0.4-1.6-1-2.3-1.6
	c-3.9-3.8-7.8-7.6-11.6-11.6c-2.7-2.9-2.6-4,0.6-6.2c3.2-2.2,6.8-4.4,10.2-6.6c2-1.3,4.2-1,6.3-0.5c1.6,0.5,3.3,0.1,4.5-1
	C418.8,261,420,260.9,420.9,260.6z M404.8,280.2c0.4-0.1,0.7-0.3,1-0.5c2-1.9,4-3.9,5.9-5.9c0.5-0.4,0.6-1.1,0.2-1.6
	c-0.1-0.1-0.1-0.1-0.2-0.2c-0.4-0.4-1.1-0.5-1.6-0.1c0,0-0.1,0.1-0.1,0.1c-0.5,0.5-1.1,1.1-1.6,1.6c-1.4,1.4-2.8,2.8-4.2,4.2
	c-0.3,0.4-0.4,1-0.3,1.5C403.9,279.7,404.4,279.9,404.8,280.2L404.8,280.2z M416,276.7c-0.3-0.3-0.5-0.9-0.8-0.9
	c-0.5-0.1-1,0-1.5,0.4c-1.9,2-3.6,4-5.5,6c-0.5,0.4-0.6,1.1-0.2,1.6c0.1,0.1,0.1,0.1,0.2,0.2c0.4,0.4,1.2,0.4,1.6,0
	c0.1-0.1,0.1-0.1,0.1-0.2c1.8-2,3.6-4,5.4-6.1C415.7,277.3,415.9,277,416,276.7L416,276.7z M408.4,269.1c-0.3-0.4-0.5-0.9-0.9-1
	c-0.5-0.1-1,0-1.4,0.3c-2,1.7-4,3.5-5.9,5.2c-0.8,0.7-0.9,1.5-0.4,2c0.6,0.5,1.3,0.4,1.9-0.2c1.9-1.7,3.9-3.5,5.8-5.2
	C407.9,269.9,408.2,269.5,408.4,269.1L408.4,269.1z"/>
<path class="st4" d="M449.6,231.6c0.9,0.1,1.7,0.6,2.2,1.4c0.4,0.7,0.4,1.7-0.1,2.4c-0.2,0.3-0.5,0.6-0.8,0.8l-25.5,25.5
	c-1,1-1.3,1-2.5,0.2c-0.3-0.2-0.5-0.5-0.8-0.7c-1.1-1.3-1.1-1.7,0.1-2.9c8.4-8.4,16.9-16.9,25.3-25.3
	C448.2,232.4,448.9,232,449.6,231.6z M450.7,234.3c0-0.6-0.5-1.2-1.1-1.2c-0.3,0-0.5,0.1-0.7,0.2c-0.9,0.7-1.7,1.6-2.5,2.5
	c-0.2,0.5-0.2,1,0.1,1.4c0.4,0.3,0.9,0.4,1.3,0.2c0.9-0.8,1.8-1.6,2.6-2.5C450.7,234.8,450.7,234.5,450.7,234.3L450.7,234.3z"/>
<path class="st4" d="M373.4,263c-4.1-2.6-5.7-8.9-3.8-14.9c2-6.3,7.2-10.6,12.4-10.4C373.5,244.2,370.6,252.6,373.4,263z"/>
<path class="st4" d="M367.2,269.8c-2,3.3-7,4.6-11.8,3.2c-5-1.5-8.6-5.7-8.4-10.1C351.4,269.6,359.7,272.4,367.2,269.8z"/>
<path class="st4" d="M387.1,253.2c3.5,2.3,4.7,7.3,3.2,12.2c-1.5,4.8-5.6,8.3-10,8.1c3.3-2,5.8-5.2,7-8.9
	C388.7,260.9,388.6,256.8,387.1,253.2z"/>
<line class="st8" x1="379.1" y1="298.9" x2="378.1" y2="303.8"/>
<line class="st8" x1="381.3" y1="299.4" x2="380.4" y2="304.3"/>
<line class="st8" x1="383.7" y1="299.8" x2="382.7" y2="304.7"/>
<polygon class="st9" points="383.9,308.1 375.8,306.5 375.9,305.5 384,307.2 "/>
<path class="st10" d="M390,298.2c0.4-2.1-0.9-4.1-3-4.5c-0.3-0.1-0.6-0.1-0.8-0.1c-0.4-2.1-2.4-3.4-4.5-2.9c-1,0.2-1.8,0.8-2.4,1.6
	c-1.9-0.9-4.2,0-5,1.9c-0.9,1.9,0,4.2,1.9,5c0.2,0.1,0.5,0.2,0.8,0.2l0,0h-0.1l-1.3,8.6l7.9,1.6l2.1-8.4h-0.1l0,0
	C387.5,301.6,389.5,300.3,390,298.2C389.9,298.2,389.9,298.2,390,298.2z"/>
<path class="st4" d="M376.4,167.4c0-0.3,0-0.7,0-1.1c0-2.5-1.1-3.7-3.6-3.6c-4.1,0.1-8.2,0-12.4,0c-2.9,0-5.9,0-8.8,0
	c-0.9,0-1.8-0.2-1.9-1.1c-0.1-1.2,0.8-1.5,1.8-1.5h1.6c6.9,0,13.7,0,20.6,0c1,0,2.4,0.3,2.4-1.1c0-1.6-1.5-1.3-2.5-1.3
	c-7.3,0-14.7,0-22,0c-3.2,0-4.5,1.3-4.5,4.5c0,1.7,0,3.4,0,5.1l0,0v25.2c0,2.4,1,3.5,3.4,3.5c7.4,0,14.8,0,22.3,0
	c2.4,0,3.5-1.2,3.5-3.5h0.1L376.4,167.4L376.4,167.4z"/>
<line class="st11" x1="359.3" y1="179" x2="359.3" y2="184"/>
<line class="st11" x1="361.8" y1="179" x2="361.8" y2="184"/>
<line class="st11" x1="364.4" y1="179" x2="364.4" y2="184"/>
<polygon class="st9" points="366.4,187.1 357.3,187.1 357.2,186.1 366.4,186.1 "/>
<path class="st12" d="M370.8,175.1c0-2.3-1.9-4.2-4.2-4.2c-0.3,0-0.7,0-1,0.1c-0.9-2.1-3.4-3.1-5.5-2.2c-1,0.4-1.8,1.2-2.2,2.2
	c-2.3-0.5-4.5,0.9-5,3.2c-0.5,2.3,0.9,4.5,3.2,5c0.3,0.1,0.5,0.1,0.8,0.1h-0.1l0.6,9.6h8.9l0.5-9.6h-0.1
	C369,179.2,370.8,177.4,370.8,175.1z"/>
<line class="st13" x1="233.8" y1="427.3" x2="233.8" y2="460.5"/>
<line class="st13" x1="248.8" y1="427.3" x2="248.8" y2="460.5"/>
<line class="st14" x1="259.1" y1="425.4" x2="259.1" y2="446.3"/>
<polygon class="st9" points="266.6,454.4 232,454.4 231.8,450.3 266.6,450.3 "/>
<path class="st14" d="M283.4,408.6c0-8.8-7.1-15.9-15.9-15.9c-1.2,0-2.4,0.1-3.6,0.4c-3.5-8.1-12.8-11.8-20.9-8.4
	c-3.8,1.6-6.8,4.6-8.4,8.4c-8.6-2-17.1,3.4-19.1,12c-2,8.6,3.4,17.1,12,19.1c1.1,0.3,2.3,0.4,3.5,0.4l0,0h-0.5l1.8,36.5h33.9
	l1.8-36.5h-0.6l0,0C276.2,424.5,283.4,417.4,283.4,408.6C283.4,408.6,283.4,408.6,283.4,408.6z"/>
<path class="st15" d="M350.7,447.4c-3.5,0-6.4,2.9-6.4,6.4c0,3.5,2.9,6.4,6.4,6.4c3.5,0,6.4-2.9,6.4-6.4c0,0,0,0,0,0
	C357.1,450.3,354.3,447.4,350.7,447.4L350.7,447.4z"/>
<path class="st15" d="M350.7,456.2c-1.3,0-2.4-1.1-2.4-2.4s1.1-2.4,2.4-2.4s2.4,1.1,2.4,2.4c0,0,0,0,0,0
	C353.1,455.1,352.1,456.2,350.7,456.2z"/>
<path class="st15" d="M391.4,447.4c-3.5,0-6.4,2.9-6.4,6.4c0,3.5,2.9,6.4,6.4,6.4c3.5,0,6.4-2.9,6.4-6.4c0,0,0,0,0,0
	C397.8,450.3,394.9,447.4,391.4,447.4L391.4,447.4z"/>
<path class="st15" d="M391.4,456.2c-1.3,0-2.4-1.1-2.4-2.4s1.1-2.4,2.4-2.4s2.4,1.1,2.4,2.4c0,0,0,0,0,0
	C393.7,455.1,392.7,456.2,391.4,456.2z"/>
<path class="st15" d="M332.5,396.7l-4.5-14.1c-0.3-0.9-1.1-1.5-2-1.5h-20.1c-1.2,0-2.1,1-2.1,2.1l0,0l0,0c0,1.2,1,2.1,2.1,2.1l0,0
	H323c0.9,0,1.7,0.6,2,1.5l12.9,41.3c1.5,6.4,4.8,10.7,10.7,10.7h44.9c5.9,0,9.2-4.5,10.7-10.7L412,401c0.3-1.1-0.3-2.3-1.5-2.6
	c-0.2-0.1-0.4-0.1-0.6-0.1h-75.4C333.6,398.2,332.7,397.6,332.5,396.7z M399.9,428.1c-1,3.4-2.9,6.4-6.4,6.4h-44.9
	c-3.5,0-5.2-1.7-6.4-6.4l-6.5-22.9c-0.3-1.1,0.3-2.3,1.5-2.6c0.2-0.1,0.4-0.1,0.6-0.1h66.9c1.2,0,2.1,1,2.1,2.1c0,0.2,0,0.4-0.1,0.6
	L399.9,428.1z"/>
<path class="st16" d="M399.9,428.1"/>
<path class="st17" d="M339.5,409.9c0.5,0.2,63.3,0,63.3,0"/>
<path class="st17" d="M342.2,418.5c0.5,0.2,58,0,58,0"/>
<path class="st17" d="M345.5,428.1c0.5,0.2,51.4,0,51.4,0"/>
<line class="st18" x1="425" y1="398.2" x2="443" y2="398.2"/>
<line class="st18" x1="425" y1="405.3" x2="443" y2="405.3"/>
<line class="st18" x1="425" y1="412.2" x2="443" y2="412.2"/>
</svg>
